<?xml version="1.0" encoding="UTF-8" standalone="no"?>
<!DOCTYPE svg PUBLIC "-//W3C//DTD SVG 1.1//EN" "http://www.w3.org/Graphics/SVG/1.1/DTD/svg11.dtd">
<svg width="100%" height="100%" viewBox="0 0 1146 292" version="1.1" xmlns="http://www.w3.org/2000/svg" xmlns:xlink="http://www.w3.org/1999/xlink" xml:space="preserve" xmlns:serif="http://www.serif.com/" style="fill-rule:evenodd;clip-rule:evenodd;stroke-linejoin:round;stroke-miterlimit:2;">
    <g transform="matrix(4.16667,0,0,4.16667,0,0)">
        <path d="M70.251,30.073C68.387,15.899 58.115,4.385 44.612,0.691L35.28,10.02C47.184,10.02 57.122,18.446 59.457,29.657C49.586,30.786 40.948,35.984 35.28,43.537C29.605,35.984 20.974,30.786 11.104,29.657C13.436,18.446 23.377,10.02 35.28,10.02L25.956,0.691C12.445,4.385 2.169,15.899 0.302,30.073C0.105,31.591 0,33.144 0,34.716C0,36.823 0.19,38.872 0.549,40.884C2.621,40.31 4.801,40.007 7.048,40.007C8.482,40.007 9.884,40.137 11.241,40.367C19.509,41.779 26.368,47.292 29.651,54.747C30.264,56.121 30.75,57.558 31.099,59.044C31.522,60.866 31.747,62.757 31.747,64.695C31.747,66.431 31.571,68.122 31.236,69.753C31.211,69.83 31.194,69.909 31.173,69.993L39.384,69.993C39.363,69.909 39.349,69.83 39.328,69.753C38.983,68.122 38.803,66.431 38.803,64.695C38.803,62.757 39.043,60.866 39.462,59.044C39.818,57.558 40.297,56.121 40.903,54.747C44.189,47.292 51.055,41.776 59.32,40.367C60.68,40.137 62.075,40.007 63.498,40.007C65.752,40.007 67.933,40.31 70.015,40.884C70.36,38.872 70.554,36.823 70.554,34.716C70.554,33.144 70.456,31.591 70.251,30.073Z" style="fill:rgb(47,67,155);fill-rule:nonzero;"/>
        <path d="M116.886,30.217C113.945,26.31 112.444,21.563 111.799,17.447L128.701,17.447L128.701,13.207L111.408,13.207C111.401,12.935 111.397,12.663 111.397,12.408L111.397,0.698L106.121,0.698L106.121,12.408C106.121,12.663 106.106,12.931 106.103,13.207L88.806,13.207L88.806,17.447L105.708,17.447C105.071,21.563 103.563,26.31 100.628,30.217C97.324,34.638 93.29,37.238 90.063,38.725C89.397,39.035 88.771,39.295 88.186,39.507L88.186,44.379C92.001,43.185 98.902,40.159 104.31,32.969C105.93,30.789 107.17,28.475 108.09,26.148L108.09,26.156C108.22,25.914 108.467,25.747 108.763,25.747C109.038,25.747 109.284,25.907 109.415,26.145L109.415,26.136C110.344,28.465 111.574,30.783 113.198,32.969C118.612,40.159 125.521,43.185 129.325,44.379L129.325,39.507C125.961,38.239 120.86,35.554 116.886,30.217Z" style="fill:rgb(47,67,155);fill-rule:nonzero;"/>
        <path d="M212.128,30.217C209.197,26.31 207.689,21.563 207.052,17.447L223.958,17.447L223.958,13.207L206.657,13.207C206.654,12.935 206.644,12.663 206.654,12.408L206.654,0.698L201.362,0.698L201.362,12.408C201.362,12.663 201.359,12.931 201.353,13.207L184.059,13.207L184.059,17.447L200.958,17.447C200.316,21.563 198.826,26.31 195.874,30.217C192.573,34.638 188.529,37.238 185.313,38.725C184.647,39.035 184.017,39.295 183.436,39.507L183.436,44.379C187.25,43.185 194.155,40.159 199.566,32.969C201.183,30.789 202.412,28.475 203.346,26.148L203.346,26.156C203.473,25.914 203.72,25.747 204.001,25.747C204.29,25.747 204.54,25.907 204.667,26.145L204.667,26.136C205.59,28.465 206.826,30.783 208.454,32.969C213.861,40.159 220.767,43.185 224.578,44.379L224.578,39.507C221.214,38.239 216.109,35.554 212.128,30.217Z" style="fill:rgb(47,67,155);fill-rule:nonzero;"/>
        <path d="M170.897,18.236C170.919,18.176 170.933,18.111 170.933,18.036C170.933,17.627 170.591,17.299 170.183,17.299L160.093,17.299C161.09,20.586 162.256,23.564 163.827,26.076C164.55,27.219 165.314,28.349 166.149,29.46C166.825,28.399 167.432,27.32 167.935,26.27C168.957,24.135 169.799,21.909 170.524,19.513L170.897,18.236ZM177.975,39.493L177.975,43.742C174.163,42.339 171.162,40.36 168.569,37.999C167.79,37.288 167.062,36.562 166.356,35.815C165.44,36.9 164.458,37.936 163.412,38.887C161.372,40.737 158.899,42.762 155.943,44.209L155.943,39.707C157.698,38.622 159.308,37.305 160.767,35.966C161.819,35.015 162.816,33.934 163.746,32.803C162.542,31.274 161.46,29.722 160.491,28.169C159.174,26.055 158.146,23.767 157.282,21.368C157.247,23.291 157.148,25.557 156.873,27.637C156.395,31.563 155.122,35.111 151.723,38.598C150.233,40.137 148.627,41.114 147.337,41.741L146.146,37.914C147.013,37.446 148.01,36.78 148.88,35.865C151.709,32.875 152.474,30.642 152.967,27.129C153.305,24.558 153.357,21.415 153.357,19.275C153.357,18.446 153.354,17.757 153.354,17.299L153.354,2.144L176.234,2.144L176.234,6.336L158.275,6.336L158.275,13.51L176.107,13.51C174.974,18.862 173.606,23.55 171.479,27.977C170.735,29.525 169.819,31.101 168.777,32.641C169.541,33.476 170.355,34.293 171.226,35.082C173.209,36.872 175.312,38.348 177.975,39.493ZM145.583,6.357C145.618,6.278 145.636,6.192 145.636,6.099C145.636,5.687 145.301,5.355 144.889,5.355L140.323,5.355L140.323,44.284L136.019,44.284L136.019,2.157L150.127,2.157L150.127,6.07L146.833,14.976C147.021,15.224 147.21,15.481 147.404,15.754C148.641,17.547 149.973,20.005 149.99,22.916C150.011,27.601 148.397,30.61 146.622,32.287C145.995,32.886 145.364,33.314 144.812,33.624L143.663,29.932C143.793,29.831 143.924,29.722 144.051,29.592C145.065,28.604 146.252,26.809 146.267,22.916C146.284,21.23 145.379,19.337 144.356,17.891C143.343,16.438 142.289,15.471 142.25,15.434L142.254,15.423L142.239,15.416L145.234,7.324" style="fill:rgb(47,67,155);fill-rule:nonzero;"/>
        <path d="M272.403,30.948L272.403,27.189L253.881,27.189L253.881,25.12C253.881,25.12 256.452,24.07 258.51,22.761C260.696,21.368 262.462,19.716 262.462,19.716L262.462,16.281L239.268,16.281L239.268,19.716L256.528,19.716C256.528,19.716 255.174,20.745 253.165,21.743C251.157,22.731 249.198,23.117 249.198,23.117L249.198,27.189L230.147,27.189L230.147,30.948L249.198,30.948L249.198,35.427C249.198,35.427 249.259,37.883 247.944,38.964C246.359,40.26 245.063,40.345 244.168,40.468C243.291,40.599 242.474,40.623 242.474,40.623L242.474,44.372C242.474,44.372 247.166,44.27 249.861,42.924C252.306,41.733 253.147,40.025 253.482,38.69C253.892,37.027 253.881,35.427 253.881,35.427L253.881,30.948L272.403,30.948ZM235.506,12.679L265.438,12.679C266.207,12.679 266.827,13.289 266.827,14.053L266.827,19.585L271.516,19.585L271.516,8.918L261.933,8.918C262.427,8.45 263.029,7.8 263.698,6.911C265.583,4.439 266.7,1.762 267.105,0.698L262.554,0.698C262.19,1.621 261.316,3.613 259.845,5.558C258.661,7.115 257.301,8.212 256.259,8.918L230.824,8.918L230.824,19.585L235.506,19.585L235.506,12.679ZM251.471,0.698L247.575,0.698L247.575,6.74L251.471,6.74L251.471,0.698ZM241.269,0.698L237.373,0.698L237.373,6.74L241.269,6.74L241.269,0.698Z" style="fill:rgb(47,67,155);fill-rule:nonzero;"/>
        <path d="M89.313,61.63C89.313,65.751 90.768,67.83 92.941,67.83C95.126,67.83 96.552,65.751 96.552,61.63C96.552,57.487 95.126,55.422 92.941,55.422C90.768,55.422 89.313,57.487 89.313,61.63ZM99.293,61.609C99.293,66.942 96.732,70 92.927,70C89.123,70 86.583,66.978 86.583,61.648C86.583,56.296 89.162,53.256 92.941,53.256C96.753,53.256 99.293,56.25 99.293,61.609Z" style="fill:rgb(47,67,155);fill-rule:nonzero;"/>
        <path d="M108.981,58.023C108.601,56.276 107.72,55.38 106.346,55.38C104.771,55.38 103.884,56.191 103.884,57.48C103.884,58.904 104.454,59.541 106.596,60.193L107.382,60.436C110.76,61.44 111.715,62.834 111.715,65.209C111.715,68.041 109.915,70 106.364,70C103.475,70 101.474,68.626 100.766,65.808L103.235,64.952C103.609,66.823 104.743,67.866 106.311,67.866C108.259,67.866 109.129,66.956 109.129,65.561C109.129,64.173 108.675,63.525 106.251,62.771L105.483,62.525C102.333,61.499 101.319,60.147 101.319,57.67C101.319,55.233 103.077,53.256 106.269,53.256C108.868,53.256 110.707,54.588 111.489,57.272" style="fill:rgb(47,67,155);fill-rule:nonzero;"/>
        <path d="M119.863,59.586C119.532,58.319 119.31,57.127 118.982,55.606L118.806,55.606C118.482,57.149 118.214,58.319 117.89,59.566L117.083,62.856L120.715,62.856L119.863,59.586ZM125.14,69.683L122.438,69.683L121.177,64.934L116.629,64.934L115.354,69.683L112.902,69.683L117.453,53.528L120.567,53.528" style="fill:rgb(47,67,155);fill-rule:nonzero;"/>
        <path d="M133.105,59.96L138.686,69.683L135.765,69.683L131.439,61.918L129.709,64.043L129.709,69.683L127.166,69.683L127.166,53.528L129.709,53.528L129.709,60.897L135.3,53.528L138.248,53.528" style="fill:rgb(47,67,155);fill-rule:nonzero;"/>
        <path d="M146.27,59.586C145.949,58.319 145.713,57.127 145.399,55.606L145.22,55.606C144.896,57.149 144.628,58.319 144.304,59.566L143.505,62.856L147.137,62.856L146.27,59.586ZM151.547,69.683L148.855,69.683L147.591,64.934L143.043,64.934L141.765,69.683L139.315,69.683L143.864,53.528L146.978,53.528" style="fill:rgb(47,67,155);fill-rule:nonzero;"/>
        <path d="M170.045,64.11C170.045,67.978 167.872,69.979 164.451,69.979C161.009,69.979 158.797,68.041 158.797,64.11L158.797,53.528L161.379,53.528L161.379,64.064C161.379,66.709 162.538,67.83 164.511,67.83C166.455,67.83 167.643,66.709 167.643,64.064L167.643,53.528L170.045,53.528" style="fill:rgb(47,67,155);fill-rule:nonzero;"/>
        <path d="M184.746,69.683L181.593,69.683L178.003,61.362C177.147,59.333 176.552,57.839 175.883,56.029L175.611,56.029C175.703,57.945 175.741,59.858 175.741,61.856L175.741,69.683L173.389,69.683L173.389,53.528L177.256,53.528L180.335,60.693C181.174,62.711 181.744,64.353 182.301,66.231L182.568,66.231C182.46,64.258 182.375,62.483 182.375,60.313L182.375,53.528L184.746,53.528" style="fill:rgb(47,67,155);fill-rule:nonzero;"/>
        <rect x="188.12" y="53.528" width="2.597" height="16.155" style="fill:rgb(47,67,155);fill-rule:nonzero;"/>
        <path d="M200.447,69.683L197.23,69.683L192.742,53.528L195.515,53.528L197.449,61.129C197.995,63.229 198.383,65.131 198.841,67.104L199.108,67.104C199.527,65.174 199.946,63.296 200.479,61.21L202.431,53.528L204.974,53.528" style="fill:rgb(47,67,155);fill-rule:nonzero;"/>
        <path d="M216.778,55.754L209.574,55.754L209.574,60.024L215.027,60.024L215.027,62.25L209.574,62.25L209.574,67.456L216.937,67.456L216.937,69.683L206.999,69.683L206.999,53.528L216.778,53.528" style="fill:rgb(47,67,155);fill-rule:nonzero;"/>
        <path d="M221.714,60.375L224.293,60.375C226.318,60.375 227.202,59.467 227.202,57.959C227.202,56.526 226.452,55.627 224.409,55.627L221.714,55.627L221.714,60.375ZM224.525,53.528C228.136,53.528 229.777,55.106 229.777,57.916C229.777,59.917 228.742,61.398 226.836,62.017L230.253,69.683L227.484,69.683L224.493,62.44C224.278,62.44 224.063,62.461 223.82,62.461L221.714,62.461L221.714,69.683L219.191,69.683L219.191,53.528" style="fill:rgb(47,67,155);fill-rule:nonzero;"/>
        <path d="M239.511,58.023C239.131,56.276 238.246,55.38 236.872,55.38C235.305,55.38 234.41,56.191 234.41,57.48C234.41,58.904 234.98,59.541 237.123,60.193L237.904,60.436C241.286,61.44 242.245,62.834 242.245,65.209C242.245,68.041 240.444,70 236.894,70C234.009,70 232.004,68.626 231.296,65.808L233.755,64.952C234.143,66.823 235.263,67.866 236.841,67.866C238.785,67.866 239.666,66.956 239.666,65.561C239.666,64.173 239.208,63.525 236.777,62.771L236.01,62.525C232.856,61.499 231.849,60.147 231.849,57.67C231.849,55.233 233.604,53.256 236.799,53.256C239.398,53.256 241.233,54.588 242.013,57.272" style="fill:rgb(47,67,155);fill-rule:nonzero;"/>
        <rect x="244.767" y="53.528" width="2.6" height="16.155" style="fill:rgb(47,67,155);fill-rule:nonzero;"/>
        <path d="M260.933,55.799L256.519,55.799L256.519,69.683L253.919,69.683L253.919,55.799L249.544,55.799L249.544,53.531L260.933,53.531" style="fill:rgb(47,67,155);fill-rule:nonzero;"/>
        <path d="M269.159,63.004L269.159,69.683L266.552,69.683L266.552,63.004L261.782,53.531L264.643,53.531L267.581,59.544C267.785,59.917 267.877,60.151 268.049,60.524C268.222,60.133 268.317,59.917 268.524,59.523L271.371,53.531L274.01,53.531" style="fill:rgb(47,67,155);fill-rule:nonzero;"/>
    </g>
</svg>
