<svg width="313" height="130" xmlns="http://www.w3.org/2000/svg" xml:space="preserve" version="1.1">
 <g>
  <title>Layer 1</title>
  <g stroke="null">
   <g stroke="null" transform="matrix(0.847001 0 0 0.836918 122.053 -8.19644)">
    <path stroke="null" fill-rule="nonzero" fill="rgb(47,67,155)" d="m-27.18734,82.39291c-1.864,-14.174 -12.136,-25.68799 -25.63902,-29.382l-9.332,9.32901c11.90401,0 21.84202,8.42599 24.17702,19.63701c-9.87102,1.129 -18.509,6.327 -24.17702,13.87999c-5.67499,-7.55299 -14.306,-12.75099 -24.176,-13.87999c2.332,-11.21101 12.27299,-19.63701 24.176,-19.63701l-9.32399,-9.32901c-13.511,3.69402 -23.787,15.20801 -25.65399,29.382c-0.19701,1.51801 -0.30202,3.07101 -0.30202,4.64301c0,2.10699 0.19002,4.15601 0.54901,6.168c2.07199,-0.57399 4.252,-0.877 6.49899,-0.877c1.43401,0 2.836,0.13 4.19299,0.36c8.26802,1.41199 15.12701,6.925 18.41,14.38c0.61301,1.37399 1.09901,2.811 1.448,4.297c0.423,1.82199 0.64801,3.713 0.64801,5.651c0,1.73599 -0.17599,3.427 -0.511,5.058c-0.02501,0.077 -0.04201,0.15599 -0.063,0.23999l8.211,0c-0.021,-0.084 -0.035,-0.16299 -0.056,-0.23999c-0.345,-1.631 -0.52499,-3.32201 -0.52499,-5.058c0,-1.938 0.23999,-3.82901 0.659,-5.651c0.356,-1.48599 0.83501,-2.923 1.44101,-4.297c3.286,-7.455 10.152,-12.97101 18.417,-14.38c1.36,-0.23 2.755,-0.36 4.178,-0.36c2.254,0 4.435,0.30301 6.517,0.877c0.345,-2.01199 0.539,-4.061 0.539,-6.168c0,-1.57199 -0.098,-3.125 -0.303,-4.64301z"/>
    <path stroke="null" fill-rule="nonzero" fill="rgb(47,67,155)" d="m19.44765,82.53693c-2.941,-3.90701 -4.442,-8.65401 -5.087,-12.77l16.902,0l0,-4.24001l-17.293,0c-0.00699,-0.27199 -0.01099,-0.54399 -0.01099,-0.799l0,-11.71001l-5.276,0l0,11.71001c0,0.255 -0.015,0.52299 -0.01801,0.799l-17.297,0l0,4.24001l16.902,0c-0.637,4.116 -2.145,8.86299 -5.08,12.77c-3.304,4.42099 -7.338,7.021 -10.56499,8.508c-0.666,0.31 -1.292,0.57001 -1.87701,0.782l0,4.87199c3.815,-1.194 10.716,-4.21999 16.124,-11.40999c1.62,-2.18001 2.86,-4.494 3.78,-6.821l0,0.008c0.13,-0.242 0.37701,-0.409 0.673,-0.409c0.275,0 0.521,0.15999 0.652,0.39799l0,-0.009c0.929,2.32901 2.15899,4.647 3.783,6.83301c5.414,7.19 12.323,10.21599 16.127,11.40999l0,-4.87199c-3.364,-1.26799 -8.465,-3.95299 -12.439,-9.28999z"/>
    <path stroke="null" fill-rule="nonzero" fill="rgb(47,67,155)" d="m114.68965,82.53693c-2.931,-3.90701 -4.43901,-8.65401 -5.076,-12.77l16.906,0l0,-4.24001l-17.301,0c-0.00299,-0.27199 -0.013,-0.54399 -0.00299,-0.799l0,-11.71001l-5.29201,0l0,11.71001c0,0.255 -0.00301,0.52299 -0.009,0.799l-17.29399,0l0,4.24001l16.89899,0c-0.642,4.116 -2.13199,8.86299 -5.084,12.77c-3.30099,4.42099 -7.34499,7.021 -10.56099,8.508c-0.666,0.31 -1.29601,0.57001 -1.877,0.782l0,4.87199c3.814,-1.194 10.71899,-4.21999 16.12999,-11.40999c1.617,-2.18001 2.84601,-4.494 3.78,-6.821l0,0.008c0.12701,-0.242 0.37401,-0.409 0.65501,-0.409c0.28899,0 0.53899,0.15999 0.666,0.39799l0,-0.009c0.92299,2.32901 2.159,4.647 3.78699,6.83301c5.407,7.19 12.313,10.21599 16.12402,11.40999l0,-4.87199c-3.364,-1.26799 -8.46902,-3.95299 -12.45,-9.28999z"/>
    <path stroke="null" fill-rule="nonzero" fill="rgb(47,67,155)" d="m73.45866,70.55592c0.022,-0.06 0.036,-0.125 0.036,-0.2c0,-0.40901 -0.342,-0.737 -0.75,-0.737l-10.08999,0c0.99699,3.287 2.16299,6.26498 3.73399,8.77699c0.72301,1.14301 1.487,2.27301 2.32201,3.384c0.67599,-1.061 1.283,-2.14 1.786,-3.19c1.022,-2.13499 1.864,-4.36099 2.589,-6.757l0.373,-1.27699zm7.078,21.257l0,4.24899c-3.81201,-1.403 -6.813,-3.38199 -9.40601,-5.74301c-0.77901,-0.711 -1.507,-1.43698 -2.213,-2.18399c-0.916,1.08501 -1.89801,2.121 -2.944,3.07201c-2.04,1.84999 -4.513,3.87498 -7.46901,5.32201l0,-4.50201c1.755,-1.08499 3.36501,-2.40199 4.82401,-3.741c1.052,-0.95099 2.04899,-2.032 2.979,-3.16299c-1.20399,-1.52901 -2.286,-3.08101 -3.255,-4.634c-1.317,-2.114 -2.345,-4.40201 -3.209,-6.80101c-0.035,1.923 -0.134,4.18901 -0.409,6.26901c-0.478,3.92599 -1.75101,7.474 -5.14999,10.96098c-1.49001,1.53902 -3.09601,2.51602 -4.386,3.14302l-1.19101,-3.82701c0.867,-0.46799 1.864,-1.134 2.73401,-2.049c2.82899,-2.99001 3.59399,-5.22301 4.08699,-8.73601c0.338,-2.571 0.39,-5.71399 0.39,-7.85399c0,-0.82901 -0.00299,-1.51801 -0.00299,-1.976l0,-15.15501l22.87999,0l0,4.192l-17.959,0l0,7.17401l17.832,0c-1.133,5.35199 -2.50099,10.03999 -4.62799,14.467c-0.744,1.548 -1.66,3.12401 -2.70201,4.664c0.76401,0.83501 1.578,1.65201 2.44901,2.44099c1.983,1.79001 4.086,3.26601 6.74901,4.41101zm-32.39201,-33.13602c0.035,-0.07899 0.05301,-0.16499 0.05301,-0.258c0,-0.412 -0.33501,-0.74399 -0.74699,-0.74399l-4.56601,0l0,38.92899l-4.304,0l0,-42.127l14.108,0l0,3.91301l-3.29401,8.90599c0.188,0.248 0.37701,0.505 0.57101,0.778c1.237,1.79301 2.569,4.25101 2.586,7.162c0.021,4.68501 -1.593,7.69402 -3.36801,9.371c-0.627,0.599 -1.258,1.02699 -1.81,1.33699l-1.149,-3.69199c0.13,-0.10101 0.261,-0.21001 0.388,-0.34c1.01401,-0.98801 2.201,-2.783 2.216,-6.67601c0.017,-1.68599 -0.888,-3.57899 -1.911,-5.02499c-1.013,-1.453 -2.067,-2.42 -2.106,-2.457l0.004,-0.011l-0.015,-0.007l2.995,-8.092"/>
    <path stroke="null" fill-rule="nonzero" fill="rgb(47,67,155)" d="m174.96468,83.26791l0,-3.75899l-18.52202,0l0,-2.069c0,0 2.57098,-1.05 4.629,-2.35901c2.186,-1.39301 3.952,-3.045 3.952,-3.045l0,-3.435l-23.194,0l0,3.435l17.26004,0c0,0 -1.35402,1.02901 -3.36304,2.02699c-2.008,0.98801 -3.967,1.37401 -3.967,1.37401l0,4.07201l-19.05101,0l0,3.75899l19.05101,0l0,4.479c0,0 0.061,2.45599 -1.25401,3.537c-1.58499,1.29601 -2.88098,1.381 -3.77599,1.504c-0.877,0.131 -1.69402,0.155 -1.69402,0.155l0,3.74901c0,0 4.69202,-0.10201 7.38701,-1.44801c2.44501,-1.19099 3.28601,-2.89899 3.62102,-4.23399c0.40999,-1.66299 0.39899,-3.263 0.39899,-3.263l0,-4.479l18.52202,0zm-36.89702,-18.269l29.93198,0c0.76903,0 1.38902,0.61 1.38902,1.37401l0,5.532l4.689,0l0,-10.66701l-9.58299,0c0.49399,-0.468 1.09599,-1.118 1.76498,-2.00699c1.88501,-2.472 3.00203,-5.149 3.40701,-6.21301l-4.55101,0c-0.36398,0.923 -1.23799,2.91501 -2.70897,4.86c-1.18399,1.55701 -2.54404,2.65401 -3.58601,3.36l-25.43501,0l0,10.66701l4.68201,0l0,-6.90601zm15.965,-11.981l-3.89598,0l0,6.04201l3.89598,0l0,-6.04201zm-10.202,0l-3.89603,0l0,6.04201l3.89603,0l0,-6.04201z"/>
    <path stroke="null" fill-rule="nonzero" fill="rgb(47,67,155)" d="m-8.12534,113.94992c0,4.121 1.45499,6.2 3.628,6.2c2.185,0 3.611,-2.07899 3.611,-6.2c0,-4.14299 -1.426,-6.20799 -3.611,-6.20799c-2.173,0 -3.628,2.065 -3.628,6.20799zm9.97999,-0.021c0,5.33301 -2.561,8.39099 -6.366,8.39099c-3.804,0 -6.344,-3.022 -6.344,-8.35199c0,-5.35199 2.579,-8.392 6.358,-8.392c3.812,0 6.352,2.99399 6.352,8.353z"/>
    <path stroke="null" fill-rule="nonzero" fill="rgb(47,67,155)" d="m11.54265,110.34293c-0.38,-1.74701 -1.261,-2.64301 -2.635,-2.64301c-1.575,0 -2.462,0.811 -2.462,2.10001c0,1.424 0.57,2.061 2.712,2.71298l0.786,0.24301c3.378,1.004 4.33299,2.39799 4.33299,4.77301c0,2.832 -1.79999,4.79099 -5.351,4.79099c-2.889,0 -4.89,-1.37401 -5.598,-4.19199l2.469,-0.856c0.374,1.87099 1.508,2.91399 3.076,2.91399c1.94801,0 2.818,-0.90999 2.818,-2.30499c0,-1.388 -0.45399,-2.03601 -2.878,-2.79001l-0.768,-0.246c-3.15,-1.02599 -4.164,-2.37799 -4.164,-4.855c0,-2.43698 1.758,-4.41399 4.95,-4.41399c2.599,0 4.438,1.332 5.22,4.01599"/>
    <path stroke="null" fill-rule="nonzero" fill="rgb(47,67,155)" d="m22.42465,111.90591c-0.331,-1.267 -0.553,-2.45898 -0.881,-3.97998l-0.176,0c-0.324,1.543 -0.592,2.71298 -0.916,3.95999l-0.807,3.29001l3.63199,0l-0.85199,-3.27002zm5.277,10.09702l-2.70199,0l-1.261,-4.74901l-4.54801,0l-1.275,4.74901l-2.45199,0l4.551,-16.15501l3.11399,0"/>
    <path stroke="null" fill-rule="nonzero" fill="rgb(47,67,155)" d="m35.66665,112.27992l5.58101,9.72301l-2.92101,0l-4.326,-7.76501l-1.73,2.125l0,5.64001l-2.543,0l0,-16.15501l2.543,0l0,7.369l5.59101,-7.369l2.948,0"/>
    <path stroke="null" fill-rule="nonzero" fill="rgb(47,67,155)" d="m48.83166,111.90591c-0.321,-1.267 -0.55701,-2.45898 -0.871,-3.97998l-0.179,0c-0.32401,1.543 -0.592,2.71298 -0.916,3.95999l-0.799,3.29001l3.63199,0l-0.86699,-3.27002zm5.27699,10.09702l-2.692,0l-1.26399,-4.74901l-4.548,0l-1.278,4.74901l-2.45,0l4.549,-16.15501l3.114,0"/>
    <path stroke="null" fill-rule="nonzero" fill="rgb(47,67,155)" d="m72.60665,116.42993c0,3.86798 -2.173,5.86899 -5.59399,5.86899c-3.442,0 -5.654,-1.93799 -5.654,-5.86899l0,-10.58202l2.582,0l0,10.536c0,2.645 1.15899,3.76601 3.132,3.76601c1.944,0 3.132,-1.121 3.132,-3.76601l0,-10.536l2.40199,0"/>
    <path stroke="null" fill-rule="nonzero" fill="rgb(47,67,155)" d="m87.30765,122.00293l-3.15299,0l-3.59,-8.32101c-0.856,-2.02899 -1.451,-3.52298 -2.12001,-5.33299l-0.272,0c0.09201,1.916 0.13,3.82899 0.13,5.82701l0,7.827l-2.35199,0l0,-16.15501l3.86699,0l3.07901,7.16501c0.83899,2.01799 1.40899,3.65999 1.96598,5.53799l0.267,0c-0.10799,-1.97299 -0.19299,-3.74799 -0.19299,-5.91798l0,-6.78502l2.371,0"/>
    <rect stroke="null" fill-rule="nonzero" fill="rgb(47,67,155)" height="16.155" width="2.597" y="105.84792" x="90.68165"/>
    <path stroke="null" fill-rule="nonzero" fill="rgb(47,67,155)" d="m103.00865,122.00293l-3.21701,0l-4.48799,-16.15501l2.77299,0l1.93401,7.601c0.54599,2.10002 0.93399,4.002 1.392,5.97501l0.267,0c0.41899,-1.92999 0.838,-3.80798 1.371,-5.894l1.952,-7.68201l2.543,0"/>
    <path stroke="null" fill-rule="nonzero" fill="rgb(47,67,155)" d="m119.33965,108.07391l-7.20399,0l0,4.27l5.45299,0l0,2.226l-5.45299,0l0,5.20599l7.36299,0l0,2.22702l-9.938,0l0,-16.15501l9.77901,0"/>
    <path stroke="null" fill-rule="nonzero" fill="rgb(47,67,155)" d="m124.27566,112.69492l2.57898,0c2.02502,0 2.90902,-0.90799 2.90902,-2.41599c0,-1.433 -0.75002,-2.33202 -2.79302,-2.33202l-2.69498,0l0,4.748zm2.81099,-6.847c3.61102,0 5.25201,1.57802 5.25201,4.38802c0,2.00099 -1.03499,3.48199 -2.94101,4.10098l3.41701,7.66602l-2.769,0l-2.99102,-7.24301c-0.21498,0 -0.42998,0.021 -0.67297,0.021l-2.106,0l0,7.22202l-2.52302,0l0,-16.15501"/>
    <path stroke="null" fill-rule="nonzero" fill="rgb(47,67,155)" d="m142.07266,110.34293c-0.38,-1.74701 -1.26501,-2.64301 -2.63901,-2.64301c-1.567,0 -2.46201,0.811 -2.46201,2.10001c0,1.424 0.56999,2.061 2.713,2.71298l0.78101,0.24301c3.382,1.004 4.34099,2.39799 4.34099,4.77301c0,2.832 -1.80099,4.79099 -5.351,4.79099c-2.88499,0 -4.89,-1.37401 -5.59798,-4.19199l2.45898,-0.856c0.38802,1.87099 1.508,2.91399 3.08601,2.91399c1.94398,0 2.82498,-0.90999 2.82498,-2.30499c0,-1.388 -0.45799,-2.03601 -2.88899,-2.79001l-0.767,-0.246c-3.15399,-1.02599 -4.16101,-2.37799 -4.16101,-4.855c0,-2.43698 1.75499,-4.41399 4.95001,-4.41399c2.599,0 4.43399,1.332 5.21399,4.01599"/>
    <rect stroke="null" fill-rule="nonzero" fill="rgb(47,67,155)" height="16.155" width="2.6" y="105.84792" x="147.32865"/>
    <path stroke="null" fill-rule="nonzero" fill="rgb(47,67,155)" d="m163.49466,108.11893l-4.414,0l0,13.884l-2.59999,0l0,-13.884l-4.37502,0l0,-2.26801l11.38901,0"/>
    <path stroke="null" fill-rule="nonzero" fill="rgb(47,67,155)" d="m171.72066,115.32391l0,6.67902l-2.60701,0l0,-6.67902l-4.76999,-9.47299l2.86101,0l2.93799,6.013c0.20399,0.373 0.29601,0.60699 0.468,0.98c0.17299,-0.39101 0.26797,-0.60699 0.47501,-1.00099l2.84698,-5.992l2.63901,0"/>
   </g>
  </g>
 </g>
</svg>